<svg width="107" height="50" viewBox="0 0 107 50" fill="none" xmlns="http://www.w3.org/2000/svg">
<path d="M63.3 25H64.4V19.05H66.5V18H61.2V19.05H63.3V25ZM66.5074 22.6C66.5074 24 67.6074 25.1 69.0074 25.1C70.4074 25.1 71.5074 24 71.5074 22.6C71.5074 21.2 70.4074 20.1 69.0074 20.1C67.6074 20.1 66.5074 21.2 66.5074 22.6ZM69.0074 24.15C68.1574 24.15 67.5074 23.51 67.5074 22.6C67.5074 21.69 68.1574 21.05 69.0074 21.05C69.8574 21.05 70.5074 21.69 70.5074 22.6C70.5074 23.51 69.8574 24.15 69.0074 24.15ZM72.6082 27.1H73.6082V24.3C73.7082 24.45 73.8382 24.58 73.9982 24.7C74.2682 24.9 74.6682 25.1 75.2582 25.1C76.4582 25.1 77.5082 24.05 77.5082 22.6C77.5082 21.15 76.4582 20.1 75.2582 20.1C74.6682 20.1 74.2682 20.3 73.9982 20.5C73.8382 20.62 73.7082 20.75 73.6082 20.9V20.2H72.6082V27.1ZM75.0582 24.15C74.2582 24.15 73.6082 23.51 73.6082 22.6C73.6082 21.69 74.2582 21.05 75.0582 21.05C75.8582 21.05 76.5082 21.69 76.5082 22.6C76.5082 23.51 75.8582 24.15 75.0582 24.15ZM81.4043 25H82.4043V21.95C82.4043 20.9 81.6043 20.1 80.4043 20.1C79.7643 20.1 79.3043 20.32 78.9843 20.55C78.7943 20.68 78.6343 20.83 78.5043 21L79.1543 21.65C79.2543 21.53 79.3643 21.42 79.4943 21.33C79.7243 21.17 80.0143 21 80.4043 21C81.0043 21 81.4043 21.39 81.4043 21.9L79.6543 22.2C78.8043 22.35 78.2543 22.9 78.2543 23.7C78.2543 24.45 78.8943 25.1 79.8543 25.1C80.3743 25.1 80.7543 24.9 81.0243 24.7C81.1743 24.58 81.3043 24.45 81.4043 24.3V25ZM81.4043 22.85C81.4043 23.65 80.8043 24.25 80.0543 24.25C79.5443 24.25 79.2543 23.95 79.2543 23.6C79.2543 23.29 79.4943 23.04 80.0043 22.95L81.4043 22.7V22.85ZM61.7 36H62.7V34H65.05V36H66.05V31.2H65.05V33.1H62.7V31.2H61.7V36ZM70.252 36H71.252V32.95C71.252 31.9 70.452 31.1 69.252 31.1C68.612 31.1 68.152 31.32 67.832 31.55C67.642 31.68 67.482 31.83 67.352 32L68.002 32.65C68.102 32.53 68.212 32.42 68.342 32.33C68.572 32.17 68.862 32 69.252 32C69.852 32 70.252 32.39 70.252 32.9L68.502 33.2C67.652 33.35 67.102 33.9 67.102 34.7C67.102 35.45 67.742 36.1 68.702 36.1C69.222 36.1 69.602 35.9 69.872 35.7C70.022 35.58 70.152 35.45 70.252 35.3V36ZM70.252 33.85C70.252 34.65 69.652 35.25 68.902 35.25C68.392 35.25 68.102 34.95 68.102 34.6C68.102 34.29 68.342 34.04 68.852 33.95L70.252 33.7V33.85ZM74.7469 36H75.7469V34.7L76.5469 33.85L78.0469 36H79.1969L77.1969 33.15L79.0469 31.2H77.7969L75.7469 33.4V31.2H74.7469V36ZM82.5957 36H83.5957V32.95C83.5957 31.9 82.7957 31.1 81.5957 31.1C80.9557 31.1 80.4957 31.32 80.1757 31.55C79.9857 31.68 79.8257 31.83 79.6957 32L80.3457 32.65C80.4457 32.53 80.5557 32.42 80.6857 32.33C80.9157 32.17 81.2057 32 81.5957 32C82.1957 32 82.5957 32.39 82.5957 32.9L80.8457 33.2C79.9957 33.35 79.4457 33.9 79.4457 34.7C79.4457 35.45 80.0857 36.1 81.0457 36.1C81.5657 36.1 81.9457 35.9 82.2157 35.7C82.3657 35.58 82.4957 35.45 82.5957 35.3V36ZM82.5957 33.85C82.5957 34.65 81.9957 35.25 81.2457 35.25C80.7357 35.25 80.4457 34.95 80.4457 34.6C80.4457 34.29 80.6857 34.04 81.1957 33.95L82.5957 33.7V33.85ZM84.991 38.1H85.991V35.3C86.091 35.45 86.221 35.58 86.381 35.7C86.651 35.9 87.051 36.1 87.641 36.1C88.841 36.1 89.891 35.05 89.891 33.6C89.891 32.15 88.841 31.1 87.641 31.1C87.051 31.1 86.651 31.3 86.381 31.5C86.221 31.62 86.091 31.75 85.991 31.9V31.2H84.991V38.1ZM87.441 35.15C86.641 35.15 85.991 34.51 85.991 33.6C85.991 32.69 86.641 32.05 87.441 32.05C88.241 32.05 88.891 32.69 88.891 33.6C88.891 34.51 88.241 35.15 87.441 35.15ZM92.0395 36H93.0395V32.15H94.6895V31.2H90.3895V32.15H92.0395V36ZM99.1391 34.5C99.0291 34.63 98.8991 34.74 98.7591 34.83C98.5191 34.99 98.1691 35.15 97.7391 35.15C96.9291 35.15 96.3491 34.6 96.2391 33.95H99.9391L99.9591 33.81C99.9691 33.72 99.9891 33.6 99.9891 33.45C99.9891 32.09 98.9991 31.1 97.6391 31.1C96.2891 31.1 95.1891 32.2 95.1891 33.6C95.1891 35 96.2891 36.1 97.6891 36.1C98.3991 36.1 98.8891 35.88 99.2391 35.65C99.4391 35.52 99.6091 35.37 99.7391 35.2L99.1391 34.5ZM96.2391 33.1C96.4391 32.45 96.8791 32 97.6391 32C98.3491 32 98.7891 32.45 98.9391 33.1H96.2391Z" fill="white"/>
<g clip-path="url(#clip0_134_175)">
<path d="M22.2876 11V18.3618C21.0838 17.1046 19.6309 16.1028 18.0184 15.418C16.4059 14.7331 14.6679 14.3798 12.9112 14.3796C5.79589 14.3796 0 20.0286 0 27.0208C0 34.0129 5.79589 39.7079 12.9112 39.7079C20.0266 39.7079 25.7746 34.0129 25.7746 27.0208V11H22.2876Z" fill="white"/>
<path d="M41.1353 14.3796C34.0205 14.3796 28.2246 20.0287 28.2246 27.0208C28.2246 34.013 34.0216 39.708 41.1353 39.708C42.892 39.7079 44.6302 39.3545 46.2428 38.6697C47.8554 37.9848 49.3083 36.983 50.5122 35.7257V39.4766H53.9992V27.0208C54.0009 25.3603 53.6694 23.7157 53.0235 22.1812C52.3777 20.6468 51.4302 19.2525 50.2353 18.0784C49.0405 16.9042 47.6217 15.9731 46.0602 15.3384C44.4986 14.7037 42.8251 14.3779 41.1353 14.3796Z" fill="white"/>
</g>
<g clip-path="url(#clip1_134_175)">
<path d="M22.2876 11V18.3618C21.0838 17.1046 19.6309 16.1028 18.0184 15.418C16.4059 14.7331 14.6679 14.3798 12.9112 14.3796C5.79589 14.3796 0 20.0286 0 27.0208C0 34.0129 5.79589 39.7079 12.9112 39.7079C20.0266 39.7079 25.7746 34.0129 25.7746 27.0208V11H22.2876Z" fill="white"/>
<path d="M41.1353 14.3796C34.0205 14.3796 28.2246 20.0287 28.2246 27.0208C28.2246 34.013 34.0216 39.708 41.1353 39.708C42.892 39.7079 44.6302 39.3545 46.2428 38.6697C47.8554 37.9848 49.3083 36.983 50.5122 35.7257V39.4766H53.9992V27.0208C54.0009 25.3603 53.6694 23.7157 53.0235 22.1812C52.3777 20.6468 51.4302 19.2525 50.2353 18.0784C49.0405 16.9042 47.6217 15.9731 46.0602 15.3384C44.4986 14.7037 42.8251 14.3779 41.1353 14.3796Z" fill="white"/>
</g>
<defs>
<clipPath id="clip0_134_175">
<rect width="54" height="31" fill="white" transform="translate(0 11)"/>
</clipPath>
<clipPath id="clip1_134_175">
<rect width="54" height="31" fill="white" transform="translate(0 11)"/>
</clipPath>
</defs>
</svg>
