<svg width="87" height="58" viewBox="0 0 87 58" fill="none" xmlns="http://www.w3.org/2000/svg">
<g clip-path="url(#clip0_257_130)">
<path d="M35.9078 0V11.8739C33.9683 9.8462 31.6276 8.23036 29.0297 7.12577C26.4318 6.02119 23.6316 5.45123 20.8014 5.45096C9.33782 5.45096 0 14.5623 0 25.84C0 37.1176 9.33782 46.3031 20.8014 46.3031C32.265 46.3031 41.5257 37.1176 41.5257 25.84V0H35.9078Z" fill="#262626"/>
<path d="M66.2732 5.45094C54.8105 5.45094 45.4727 14.5623 45.4727 25.8399C45.4727 37.1176 54.8122 46.303 66.2732 46.303C69.1035 46.3029 71.9039 45.733 74.5019 44.6284C77.1 43.5238 79.4409 41.9079 81.3805 39.8801V45.93H86.9984V25.8399C87.0012 23.1616 86.467 20.5091 85.4265 18.0342C84.3859 15.5592 82.8594 13.3104 80.9344 11.4166C79.0093 9.52276 76.7235 8.02102 74.2077 6.99735C71.6919 5.97368 68.9956 5.44819 66.2732 5.45094Z" fill="#262626"/>
<path d="M62.611 54.7895C62.8664 54.7895 63.0735 54.5857 63.0735 54.3344C63.0735 54.0831 62.8664 53.8794 62.611 53.8794C62.3555 53.8794 62.1484 54.0831 62.1484 54.3344C62.1484 54.5857 62.3555 54.7895 62.611 54.7895Z" fill="#262626"/>
<path d="M75.8698 54.7895C76.1252 54.7895 76.3323 54.5857 76.3323 54.3344C76.3323 54.0831 76.1252 53.8794 75.8698 53.8794C75.6143 53.8794 75.4072 54.0831 75.4072 54.3344C75.4072 54.5857 75.6143 54.7895 75.8698 54.7895Z" fill="#262626"/>
<path d="M86.3663 56.139C86.3108 55.9698 86.281 55.7936 86.2777 55.6159C86.2777 55.4363 86.2795 55.2733 86.283 55.1269C86.2866 54.9804 86.2866 54.802 86.283 54.5916C86.2942 54.318 86.2458 54.0452 86.1412 53.7914C86.044 53.5875 85.8698 53.4289 85.6556 53.3494C85.3525 53.2449 85.032 53.1976 84.711 53.2099C84.4069 53.2004 84.1038 53.248 83.8178 53.3503C83.6098 53.4228 83.4259 53.55 83.2862 53.7181C83.1793 53.8485 83.1194 54.0101 83.116 54.1775C83.1148 54.2244 83.1242 54.2709 83.1435 54.3137C83.1628 54.3565 83.1915 54.3946 83.2277 54.4251C83.3007 54.4892 83.3957 54.5237 83.4935 54.5219C83.5329 54.5272 83.5729 54.5246 83.6112 54.5141C83.6494 54.5036 83.6851 54.4855 83.7159 54.4609C83.7795 54.3803 83.8386 54.2965 83.8931 54.2098C83.9676 54.0917 84.0709 53.9937 84.1935 53.9247C84.3571 53.8519 84.5362 53.8193 84.7155 53.8297C84.9848 53.8297 85.1621 53.8849 85.2471 53.9953C85.3358 54.1061 85.3809 54.2795 85.3925 54.5184C85.2011 54.5724 85.0238 54.6195 84.8608 54.6579C84.6977 54.6962 84.501 54.7381 84.2724 54.7843C84.0438 54.8305 83.8994 54.8592 83.8418 54.8714C83.5927 54.9164 83.3648 55.0386 83.1913 55.2201C83.0334 55.3917 82.9484 55.6164 82.9539 55.8478C82.9531 56.0259 83.0028 56.2007 83.0974 56.3525C83.196 56.5111 83.3378 56.6391 83.5068 56.7221C83.6975 56.816 83.9086 56.8627 84.1218 56.8581C84.359 56.8617 84.5946 56.8188 84.8147 56.7317C85.044 56.634 85.2589 56.5065 85.4536 56.3525C85.5341 56.4893 85.6314 56.6158 85.7434 56.7291C85.8149 56.8065 85.9146 56.8529 86.0207 56.8581C86.1311 56.8583 86.2376 56.8179 86.3193 56.7448C86.3588 56.7152 86.3911 56.6773 86.4138 56.6339C86.4365 56.5904 86.449 56.5426 86.4505 56.4938C86.4358 56.3728 86.4075 56.2538 86.3663 56.139ZM85.3916 55.18C85.3916 55.4904 85.3502 55.7135 85.2675 55.8495C85.1881 55.9798 85.0717 56.0844 84.9326 56.1503C84.7784 56.2284 84.6071 56.2682 84.4337 56.2662C84.2834 56.2731 84.1362 56.2221 84.0234 56.1241C83.9733 56.0806 83.9333 56.0268 83.9062 55.9667C83.8792 55.9065 83.8656 55.8412 83.8666 55.7754C83.8634 55.7176 83.8739 55.6599 83.8971 55.6067C83.9203 55.5535 83.9556 55.5062 84.0004 55.4686C84.0814 55.3996 84.1771 55.3493 84.2804 55.3213C84.3779 55.2963 84.5551 55.2568 84.8121 55.2027C85.0093 55.1645 85.2038 55.1135 85.3942 55.0502L85.3916 55.18Z" fill="#262626"/>
<path d="M81.9908 55.9095H81.9438C81.9392 55.8924 81.9368 55.8748 81.9367 55.8572V52.0739C81.9367 52.0149 81.9129 51.9584 81.8706 51.9167C81.8282 51.875 81.7707 51.8516 81.7108 51.8516H79.1641C79.1042 51.8516 79.0467 51.875 79.0044 51.9167C78.962 51.9584 78.9382 52.0149 78.9382 52.0739V52.4836C78.9382 52.7834 78.9311 53.9812 78.9178 54.2401C78.9063 54.4807 78.8791 54.7204 78.8363 54.9576C78.7983 55.1663 78.7389 55.3708 78.6591 55.5678C78.6101 55.6887 78.5508 55.8053 78.4818 55.9165H78.4508C78.387 55.9163 78.3237 55.9286 78.2647 55.9526C78.2057 55.9765 78.1521 56.0117 78.1069 56.0561C78.0617 56.1004 78.0259 56.1531 78.0014 56.2112C77.9769 56.2692 77.9644 56.3314 77.9644 56.3942V57.5274C77.9644 57.6544 78.0156 57.7761 78.1068 57.8658C78.1981 57.9556 78.3218 58.006 78.4508 58.006C78.5147 58.006 78.5779 57.9936 78.6369 57.9696C78.6958 57.9455 78.7494 57.9102 78.7945 57.8658C78.8396 57.8213 78.8753 57.7686 78.8997 57.7105C78.9241 57.6524 78.9365 57.5902 78.9364 57.5274V56.8841C78.9743 56.857 79.0199 56.8424 79.0667 56.8422H81.3369C81.3676 56.8425 81.398 56.8488 81.4262 56.861C81.4544 56.8731 81.4798 56.8908 81.5008 56.9129V57.5231C81.5008 57.65 81.552 57.7717 81.6433 57.8615C81.7345 57.9512 81.8582 58.0016 81.9873 58.0016C82.0511 58.0016 82.1143 57.9893 82.1733 57.9652C82.2323 57.9411 82.2858 57.9059 82.3309 57.8614C82.376 57.817 82.4118 57.7642 82.4361 57.7061C82.4605 57.6481 82.473 57.5859 82.4728 57.5231V56.3898C82.4735 56.2633 82.4232 56.1416 82.3328 56.0516C82.2424 55.9615 82.1194 55.9104 81.9908 55.9095ZM81.0276 55.8589C81.0283 55.9177 81.0053 55.9744 80.9636 56.0166C80.9219 56.0587 80.865 56.0829 80.8052 56.0838H79.7082C79.6712 56.0837 79.6347 56.0746 79.6021 56.0574C79.5694 56.0402 79.5416 56.0153 79.521 55.985C79.5004 55.9547 79.4878 55.9198 79.4841 55.8836C79.4804 55.8473 79.4859 55.8107 79.5 55.777C79.5283 55.7107 79.554 55.6427 79.5779 55.5747C79.6395 55.3887 79.6858 55.198 79.7162 55.0046C79.7509 54.7868 79.7742 54.5675 79.7862 54.3473C79.7995 54.112 79.8066 52.9369 79.8066 52.6597V52.5856H80.8052C80.865 52.5856 80.9223 52.6089 80.9647 52.6504C81.007 52.6919 81.0309 52.7482 81.0312 52.807L81.0276 55.8589Z" fill="#262626"/>
<path d="M72.987 52.9309C72.9725 52.9154 72.9548 52.903 72.9351 52.8946C72.9154 52.8862 72.8942 52.8819 72.8727 52.8821H69.7713V52.8864C69.6773 52.8928 69.5898 52.9356 69.5278 53.0055C69.4659 53.0754 69.4348 53.1666 69.4413 53.2591C69.4477 53.3516 69.4913 53.4378 69.5623 53.4986C69.6334 53.5595 69.7261 53.5902 69.8201 53.5838H71.1732V56.4518C71.1705 56.5085 71.1796 56.5652 71.1999 56.6184C71.2201 56.6716 71.2511 56.7202 71.291 56.7612C71.3309 56.8023 71.3788 56.835 71.4319 56.8573C71.485 56.8796 71.5421 56.8911 71.5998 56.8911C71.6575 56.8911 71.7147 56.8796 71.7678 56.8573C71.8208 56.835 71.8687 56.8023 71.9086 56.7612C71.9485 56.7202 71.9795 56.6716 71.9998 56.6184C72.02 56.5652 72.0291 56.5085 72.0265 56.4518V53.5838H72.8089C72.8868 53.5837 72.9625 53.5583 73.0243 53.5116C73.0861 53.4649 73.1305 53.3995 73.1506 53.3254C73.1708 53.2514 73.1656 53.1729 73.1359 53.102C73.1062 53.0312 73.0535 52.972 72.9861 52.9335L72.987 52.9309Z" fill="#262626"/>
<path d="M68.6132 52.8819C68.5002 52.8819 68.3918 52.9261 68.3118 53.0047C68.2319 53.0833 68.187 53.19 68.187 53.3012V55.8981C68.1828 55.9509 68.1674 56.0023 68.1419 56.0489C68.1165 56.0956 68.0814 56.1366 68.039 56.1692H67.4453L67.4267 56.1474L66.9358 53.1347C66.9283 53.0879 66.9114 53.043 66.8862 53.0027C66.861 52.9623 66.8279 52.9272 66.7889 52.8994C66.7499 52.8716 66.7057 52.8517 66.6588 52.8408C66.612 52.8298 66.5634 52.8281 66.5158 52.8357L66.4556 52.8453C66.408 52.8527 66.3624 52.8693 66.3213 52.8941C66.2803 52.9189 66.2446 52.9514 66.2164 52.9898C66.1881 53.0282 66.1679 53.0717 66.1568 53.1178C66.1457 53.1639 66.1439 53.2117 66.1516 53.2585L66.608 56.0602C66.5969 56.1007 66.5762 56.1381 66.5477 56.1692H65.8388C65.7448 56.1692 65.6547 56.206 65.5882 56.2713C65.5217 56.3367 65.4844 56.4254 65.4844 56.5179C65.4844 56.6104 65.5217 56.6991 65.5882 56.7645C65.6547 56.8299 65.7448 56.8666 65.8388 56.8666H68.6123C68.6537 56.8666 68.6949 56.8607 68.7346 56.8492C68.7763 56.8432 68.8162 56.8284 68.8514 56.8056C68.8866 56.7829 68.9163 56.7528 68.9384 56.7175C69.0038 56.6419 69.0396 56.5457 69.0394 56.4464V53.3012C69.0394 53.19 68.9945 53.0833 68.9146 53.0047C68.8347 52.9261 68.7263 52.8819 68.6132 52.8819Z" fill="#262626"/>
<path d="M52.6509 51.9127H54.004C54.3091 51.9074 54.6136 51.9399 54.9105 52.0094C55.1647 52.0744 55.3996 52.1981 55.5954 52.3703C56.1271 52.8201 56.3929 53.5036 56.3929 54.4206C56.3955 54.699 56.3685 54.9768 56.3123 55.2496C56.2636 55.4858 56.18 55.7138 56.0642 55.9261C55.9519 56.1276 55.8063 56.3093 55.6335 56.464C55.4994 56.5838 55.3473 56.6826 55.1825 56.7569C55.0149 56.8314 54.8379 56.8833 54.6562 56.9112C54.4463 56.9432 54.2341 56.9584 54.0217 56.9565H52.6722C52.5245 56.9647 52.3772 56.9347 52.2451 56.8693C52.1995 56.8439 52.1596 56.8098 52.1275 56.7691C52.0954 56.7284 52.0718 56.6819 52.0581 56.6322C52.0257 56.5022 52.0111 56.3685 52.0147 56.2347V52.5386C52.0147 52.3189 52.0643 52.1594 52.1653 52.0608C52.2663 51.9623 52.4276 51.9127 52.6509 51.9127ZM53.0532 52.7216V56.144H53.8401C54.0128 56.144 54.1475 56.1397 54.2459 56.131C54.3497 56.1202 54.4517 56.0971 54.5498 56.0621C54.65 56.0278 54.7426 55.9752 54.8227 55.9069C55.1701 55.6164 55.3438 55.1186 55.3438 54.4137C55.3438 53.9156 55.2673 53.5431 55.1143 53.2961C54.9935 53.074 54.7919 52.9049 54.5498 52.8227C54.2858 52.7498 54.0123 52.7157 53.7382 52.7216H53.0532Z" fill="#262626"/>
<path d="M59.4263 56.4037C59.2285 56.559 59.0107 56.688 58.7785 56.7873C58.5559 56.8754 58.3176 56.9189 58.0776 56.9154C57.8626 56.9192 57.6498 56.872 57.4573 56.7777C57.2869 56.6931 57.1436 56.5637 57.0435 56.4037C56.9478 56.2494 56.8975 56.0719 56.8982 55.8911C56.8927 55.6571 56.9786 55.43 57.1383 55.2565C57.3146 55.074 57.5457 54.9519 57.7976 54.9078C57.8561 54.8947 58.0014 54.8651 58.2336 54.8206C58.4657 54.7762 58.6642 54.7335 58.8299 54.6934C58.9956 54.6533 59.1746 54.6062 59.3687 54.5522C59.3575 54.3127 59.3084 54.1369 59.2216 54.0248C59.133 53.9132 58.9558 53.8565 58.6828 53.8565C58.5002 53.8456 58.3177 53.8788 58.1512 53.9533C58.0269 54.0233 57.9224 54.1228 57.8472 54.2427C57.7586 54.3708 57.7028 54.4563 57.67 54.4972C57.6387 54.5219 57.6026 54.5401 57.5639 54.5506C57.5252 54.5611 57.4847 54.5637 57.4449 54.5583C57.347 54.5595 57.2522 54.5247 57.1791 54.4606C57.1424 54.4297 57.1132 54.3911 57.0936 54.3477C57.074 54.3043 57.0644 54.2571 57.0657 54.2096C57.0706 54.0393 57.1329 53.8756 57.2429 53.7441C57.3841 53.5742 57.5698 53.4455 57.7799 53.3718C58.0706 53.2662 58.3792 53.2165 58.689 53.2254C59.0949 53.2254 59.4136 53.2724 59.6452 53.3666C59.8622 53.4466 60.0388 53.6072 60.1369 53.8138C60.2427 54.071 60.2916 54.3473 60.2805 54.6245C60.2805 54.8381 60.2805 55.0185 60.2805 55.1667C60.2805 55.3149 60.2805 55.4805 60.2805 55.6619C60.2828 55.8431 60.3127 56.0229 60.3691 56.1954C60.412 56.3112 60.4417 56.4314 60.4577 56.5537C60.456 56.6031 60.4431 56.6515 60.42 56.6954C60.3968 56.7393 60.364 56.7775 60.3239 56.8073C60.2416 56.8818 60.1336 56.9229 60.0218 56.9224C59.9686 56.9196 59.9165 56.9066 59.8684 56.884C59.8204 56.8614 59.7773 56.8297 59.7417 56.7908C59.6201 56.6757 59.514 56.5456 59.4263 56.4037ZM59.3616 55.09C59.1689 55.1543 58.972 55.2058 58.7723 55.2443C58.5136 55.2992 58.3355 55.3385 58.2407 55.3646C58.1359 55.3926 58.039 55.4436 57.9571 55.5137C57.9118 55.5518 57.8759 55.5998 57.8524 55.6537C57.8289 55.7077 57.8183 55.7663 57.8215 55.8249C57.8211 55.8908 57.835 55.956 57.8624 56.0161C57.8898 56.0763 57.9299 56.13 57.9801 56.1736C58.0945 56.2733 58.2439 56.3252 58.3966 56.3183C58.5722 56.3199 58.7455 56.2795 58.9017 56.2006C59.0424 56.1337 59.1604 56.028 59.2411 55.8964C59.3244 55.7586 59.366 55.5326 59.366 55.2182L59.3616 55.09Z" fill="#262626"/>
</g>
<defs>
<clipPath id="clip0_257_130">
<rect width="87" height="58" fill="white"/>
</clipPath>
</defs>
</svg>
