<svg width="667" height="512" viewBox="0 0 667 512" fill="none" xmlns="http://www.w3.org/2000/svg">
<path d="M829.191 476.239C822.599 475.22 816.044 474.061 809.313 473.004C732.765 460.709 653.673 447.881 597.657 396.275C564.261 365.517 543.045 323.833 522.608 283.701C505.689 250.488 488.196 216.074 463.786 187.426C414.891 130.408 340.569 100.336 281.35 80.7339C266.295 75.6543 250.85 70.9181 235.998 66.1918C183.684 49.7842 129.838 32.9662 82.09 5.0852C79.8723 3.89345 77.6919 2.56234 75.6507 1.26853L70.9165 0C74.238 2.08501 77.6988 4.20734 81.2988 6.36697C129.186 34.2853 183.273 51.3173 235.485 67.5482C250.374 72.1351 265.783 77.0107 280.838 82.0903C339.88 101.794 413.961 131.653 462.615 188.457C486.96 216.789 504.453 251.202 521.232 284.378C541.772 324.686 562.95 366.51 596.625 397.342C653.021 449.2 732.252 462.065 809.079 474.435C815.81 475.492 822.365 476.651 828.957 477.67C859.26 482.653 892.05 489.497 923.478 500.308L923.851 498.914C892.46 487.964 859.494 481.222 829.191 476.239Z" fill="#D69E67" fill-opacity="0.3"/>
</svg>
