<svg width="277" height="271" viewBox="0 0 277 271" fill="none" xmlns="http://www.w3.org/2000/svg">
<path d="M-667.814 209.1C-567.583 246.711 -457.076 211.201 -382.007 174.851C-343.424 156.151 -305.89 133.878 -269.404 112.446C-222.433 84.7111 -173.575 55.925 -122.411 34.4931C-72.5047 13.6916 54.3577 -27.9115 152.283 37.0145C208.48 74.4153 247.692 143.334 268.661 241.878C270.548 251.124 272.435 260.579 274.113 270.034H276.21C274.532 260.579 272.645 250.913 270.758 241.458C249.789 142.283 210.367 72.9445 153.541 35.3336C54.777 -30.2228 -72.7144 11.5904 -123.04 32.6021C-174.414 54.034 -223.062 82.82 -270.242 110.555C-306.519 131.987 -344.053 154.26 -382.636 172.96C-457.286 209.1 -567.163 244.4 -666.766 207.209C-702.413 193.762 -734.915 171.909 -766.159 150.688C-779.16 141.863 -792.37 132.828 -806 124.423V126.945C-792.79 135.139 -779.998 143.754 -767.417 152.369C-735.964 173.801 -703.462 195.653 -667.814 209.1Z" fill="#D69E67" fill-opacity="0.3"/>
</svg>
